<svg xmlns="http://www.w3.org/2000/svg" xmlns:xlink="http://www.w3.org/1999/xlink" width="500" zoomAndPan="magnify" viewBox="0 0 375 374.999991" height="500" preserveAspectRatio="xMidYMid meet" version="1.0"><defs><g/><clipPath id="717062ad67"><path d="M 99.070312 202.109375 L 134.320312 202.109375 L 134.320312 241 L 99.070312 241 Z M 99.070312 202.109375 " clip-rule="nonzero"/></clipPath><clipPath id="6b179eb633"><path d="M 116.769531 68.863281 L 266.769531 68.863281 L 266.769531 187.363281 L 116.769531 187.363281 Z M 116.769531 68.863281 " clip-rule="nonzero"/></clipPath></defs><rect x="-37.5" width="450" fill="#ffffff" y="-37.499999" height="449.999989" fill-opacity="1"/><rect x="-37.5" width="450" fill="#ffffff" y="-37.499999" height="449.999989" fill-opacity="1"/><g clip-path="url(#717062ad67)"><path fill="#e46f26" d="M 99.070312 236.914062 L 99.070312 222.882812 C 99.28125 222.925781 101.789062 223.421875 103.636719 224.859375 C 105.929688 226.636719 105.25 228.3125 109.074219 229.363281 C 112.578125 230.328125 121.222656 230.351562 124.917969 229.769531 C 127.445312 229.382812 128.425781 228.484375 128.53125 226.488281 C 128.636719 224.792969 128.679688 223.140625 128.679688 221.488281 C 128.679688 219.835938 128.636719 218.164062 128.53125 216.492188 C 128.425781 214.496094 127.445312 213.59375 124.917969 213.1875 C 121.222656 212.609375 112.578125 212.628906 109.074219 213.617188 C 105.25 214.667969 105.929688 216.339844 103.636719 218.121094 C 101.789062 219.558594 99.28125 220.03125 99.070312 220.074219 L 99.070312 206.042969 C 99.070312 203.898438 100.832031 202.117188 102.957031 202.117188 L 115.234375 202.117188 C 121.03125 202.117188 125.683594 203.90625 129.1875 207.480469 C 132.714844 211.019531 134.457031 215.675781 134.457031 221.488281 C 134.457031 227.28125 132.714844 231.9375 129.1875 235.476562 C 125.683594 239.082031 121.03125 240.839844 115.234375 240.839844 L 102.957031 240.839844 C 100.832031 240.839844 99.070312 239.082031 99.070312 236.914062 Z M 110.878906 224.984375 L 124.496094 224.984375 C 124.765625 224.996094 124.996094 225.097656 125.1875 225.292969 C 125.378906 225.488281 125.472656 225.722656 125.472656 225.996094 C 125.472656 226.265625 125.378906 226.5 125.1875 226.695312 C 124.996094 226.890625 124.765625 226.996094 124.496094 227.003906 L 110.878906 227.003906 C 110.605469 226.996094 110.375 226.890625 110.1875 226.695312 C 109.996094 226.5 109.902344 226.265625 109.902344 225.996094 C 109.902344 225.722656 109.996094 225.488281 110.1875 225.292969 C 110.375 225.097656 110.605469 224.996094 110.878906 224.984375 Z M 110.878906 222.496094 C 110.347656 222.496094 109.902344 222.027344 109.902344 221.488281 C 109.898438 221.214844 109.992188 220.980469 110.183594 220.785156 C 110.375 220.585938 110.605469 220.488281 110.878906 220.480469 L 124.496094 220.480469 C 124.769531 220.488281 125 220.585938 125.191406 220.785156 C 125.382812 220.980469 125.476562 221.214844 125.472656 221.488281 C 125.472656 222.027344 125.027344 222.496094 124.496094 222.496094 Z M 124.496094 217.972656 L 110.878906 217.972656 C 110.605469 217.960938 110.375 217.859375 110.1875 217.664062 C 109.996094 217.46875 109.902344 217.234375 109.902344 216.960938 C 109.902344 216.691406 109.996094 216.457031 110.1875 216.261719 C 110.375 216.066406 110.605469 215.960938 110.878906 215.953125 L 124.496094 215.953125 C 124.765625 215.960938 124.996094 216.066406 125.1875 216.261719 C 125.378906 216.457031 125.472656 216.691406 125.472656 216.960938 C 125.472656 217.234375 125.378906 217.46875 125.1875 217.664062 C 124.996094 217.859375 124.765625 217.960938 124.496094 217.972656 Z M 124.496094 217.972656 " fill-opacity="1" fill-rule="nonzero"/></g><g clip-path="url(#6b179eb633)"><path fill="#e46f26" d="M 145.972656 102.898438 C 142.253906 103.175781 133.179688 104.425781 126.195312 110.039062 C 120.964844 114.246094 116.804688 120.792969 116.769531 131.078125 C 116.738281 141.046875 121.1875 147.308594 126.71875 151.277344 C 132.984375 155.769531 140.792969 157.125 144.882812 157.535156 C 145.695312 160.285156 146.25 163.757812 146.476562 167.523438 C 146.726562 171.625 146.574219 176.070312 145.871094 180.367188 L 144.699219 187.5 L 151.277344 184.507812 C 158.4375 181.210938 171.816406 178.480469 185.859375 178.644531 C 189.386719 178.683594 192.949219 178.9375 196.496094 179.300781 C 198.867188 179.542969 201.210938 179.804688 203.550781 180.167969 C 206.558594 180.632812 209.457031 181.179688 212.347656 181.945312 C 215.402344 182.753906 218.265625 183.597656 221.101562 184.894531 C 218.921875 182.695312 216.648438 180.773438 214.019531 179.078125 C 211.417969 177.394531 208.648438 176.074219 205.714844 174.925781 C 203.410156 174.019531 201.035156 173.308594 198.601562 172.738281 C 196.996094 172.363281 195.367188 172.09375 193.730469 171.871094 C 187.519531 171.035156 181.230469 171.027344 175.304688 171.4375 C 167.300781 171.988281 159.945312 173.4375 154.199219 175.210938 C 154.367188 172.433594 154.355469 169.683594 154.195312 167.054688 C 153.835938 161.199219 152.722656 155.960938 151.238281 152.382812 L 150.25 150.003906 L 147.675781 150.003906 C 147.675781 150.003906 138.1875 150.054688 131.15625 145.0625 C 127.3125 142.335938 124.304688 137.976562 124.28125 131.078125 C 124.257812 123.648438 127.085938 118.839844 130.84375 115.777344 C 136.039062 111.539062 142.757812 110.421875 145.902344 110.128906 C 145.992188 111.171875 146.121094 112.199219 146.296875 113.210938 C 147.691406 121.320312 151.589844 128.214844 157.207031 131.628906 C 152.652344 127.507812 150.371094 120.539062 150.300781 112.851562 C 150.242188 106.574219 151.824219 99.910156 155.210938 93.976562 C 157.042969 90.765625 159.460938 87.847656 162.441406 85.300781 C 168.226562 80.363281 176.320312 77.085938 187.277344 77.210938 C 199.144531 77.289062 207.078125 80.882812 212.335938 85.785156 C 222.6875 95.441406 222.6875 109.792969 222.6875 109.792969 L 222.6875 114.546875 L 227.40625 113.984375 C 227.40625 113.984375 239.796875 112.414062 249.171875 117.546875 C 254.402344 120.414062 258.519531 125.574219 258.558594 134.628906 C 258.628906 143.285156 255.53125 148.285156 251.257812 151.03125 C 247.738281 153.289062 243.59375 154.066406 240.082031 154.402344 C 236.730469 154.71875 233.914062 154.617188 232.605469 154.535156 C 232.796875 154.269531 232.980469 153.992188 233.152344 153.714844 C 234.085938 152.203125 234.8125 150.578125 235.289062 148.832031 C 235.632812 147.566406 235.890625 146.296875 235.953125 144.949219 C 236.089844 142.097656 235.667969 139.285156 234.578125 136.269531 C 234.476562 137.960938 234.175781 139.449219 233.796875 140.976562 C 233.222656 143.273438 232.277344 145.230469 231.171875 147.144531 C 230.453125 148.394531 229.613281 149.519531 228.738281 150.632812 C 228.160156 151.367188 227.550781 152.070312 226.941406 152.78125 C 225.371094 154.613281 223.703125 156.320312 221.726562 157.722656 C 218.554688 159.980469 215.101562 161.691406 211.179688 162.335938 C 215.421875 163.03125 219.617188 162.640625 223.570312 161.191406 C 224.96875 160.683594 226.28125 160.007812 227.527344 159.21875 C 226.957031 161.800781 226.664062 164.457031 226.710938 167.222656 C 226.796875 172.253906 227.769531 177.347656 228.957031 182.65625 C 229.253906 177.390625 229.832031 172.417969 230.929688 167.667969 C 231.449219 165.40625 232.109375 163.265625 232.992188 161.238281 C 234.789062 161.535156 237.460938 161.84375 240.53125 161.761719 C 245.1875 161.636719 250.664062 160.484375 255.375 157.601562 C 261.554688 153.816406 266.578125 146.972656 266.675781 134.628906 C 266.722656 124.644531 263.046875 118.035156 258 113.613281 C 249.746094 106.378906 237.285156 105.378906 230.75 105.410156 C 229.90625 99.296875 227.140625 88.019531 218.085938 79.609375 C 211.605469 73.589844 201.914062 68.933594 187.3125 68.898438 C 176.152344 68.90625 167.402344 71.796875 160.859375 76.429688 C 158.734375 77.9375 156.828125 79.613281 155.179688 81.457031 C 152.609375 84.328125 150.570312 87.519531 149.097656 90.910156 C 147.421875 94.777344 146.386719 98.851562 145.972656 102.898438 Z M 145.972656 102.898438 " fill-opacity="1" fill-rule="evenodd"/></g><g fill="#e46f26" fill-opacity="1"><g transform="translate(134.471847, 235.009175)"><g><path d="M 13.6875 0.71875 C 11.09375 0.71875 8.828125 0.09375 6.890625 -1.15625 C 4.960938 -2.414062 3.460938 -4.175781 2.390625 -6.4375 C 1.328125 -8.707031 0.796875 -11.363281 0.796875 -14.40625 C 0.796875 -17.519531 1.398438 -20.222656 2.609375 -22.515625 C 3.828125 -24.804688 5.550781 -26.578125 7.78125 -27.828125 C 10.007812 -29.085938 12.613281 -29.71875 15.59375 -29.71875 C 17.8125 -29.71875 19.8125 -29.300781 21.59375 -28.46875 C 23.382812 -27.644531 24.878906 -26.472656 26.078125 -24.953125 C 27.273438 -23.441406 28.078125 -21.65625 28.484375 -19.59375 L 18.921875 -18 C 18.703125 -18.875 18.28125 -19.578125 17.65625 -20.109375 C 17.03125 -20.648438 16.304688 -20.921875 15.484375 -20.921875 C 14.171875 -20.921875 13.128906 -20.347656 12.359375 -19.203125 C 11.585938 -18.054688 11.203125 -16.519531 11.203125 -14.59375 C 11.203125 -12.539062 11.703125 -10.894531 12.703125 -9.65625 C 13.703125 -8.414062 15.039062 -7.796875 16.71875 -7.796875 C 17.914062 -7.796875 18.921875 -8.109375 19.734375 -8.734375 C 20.546875 -9.367188 21.035156 -10.191406 21.203125 -11.203125 L 14 -11.203125 L 14 -16.796875 L 31.078125 -16.796875 L 31.078125 0 L 23.875 0 L 23.125 -4.921875 L 23.078125 -4.921875 C 22.328125 -3.179688 21.097656 -1.804688 19.390625 -0.796875 C 17.691406 0.210938 15.789062 0.71875 13.6875 0.71875 Z M 13.6875 0.71875 "/></g></g></g><g fill="#e46f26" fill-opacity="1"><g transform="translate(166.82863, 235.009175)"><g><path d="M 1 0 L 1 -30 L 10.203125 -30 L 10.203125 0 Z M 1 0 "/></g></g></g><g fill="#e46f26" fill-opacity="1"><g transform="translate(178.02752, 235.009175)"><g><path d="M 6.875 0.40625 C 5.09375 0.40625 3.664062 -0.132812 2.59375 -1.21875 C 1.53125 -2.300781 1 -3.800781 1 -5.71875 L 1 -20.796875 L 10.203125 -20.796875 L 10.203125 -8.5625 C 10.203125 -7.46875 10.613281 -6.921875 11.4375 -6.921875 C 12.476562 -6.921875 13 -7.628906 13 -9.046875 L 13 -20.796875 L 22.203125 -20.796875 L 22.203125 0 L 14.796875 0 L 13.4375 -4.234375 L 13.40625 -4.234375 C 12.8125 -2.773438 11.9375 -1.632812 10.78125 -0.8125 C 9.625 0 8.320312 0.40625 6.875 0.40625 Z M 6.875 0.40625 "/></g></g></g><g fill="#e46f26" fill-opacity="1"><g transform="translate(201.225218, 235.009175)"><g><path d="M 12.3125 0.59375 C 9.332031 0.59375 7.085938 -0.160156 5.578125 -1.671875 C 4.066406 -3.191406 3.3125 -5.257812 3.3125 -7.875 L 3.3125 -14 L 0.3125 -14 L 0.3125 -20.796875 L 3.3125 -20.796875 L 3.3125 -25.796875 L 12.515625 -27.796875 L 12.515625 -20.796875 L 18.921875 -20.796875 L 18.921875 -14 L 12.515625 -14 L 12.515625 -9.6875 C 12.515625 -8.664062 12.753906 -7.914062 13.234375 -7.4375 C 13.710938 -6.957031 14.285156 -6.71875 14.953125 -6.71875 C 15.566406 -6.71875 16.128906 -6.800781 16.640625 -6.96875 C 17.148438 -7.144531 17.722656 -7.4375 18.359375 -7.84375 L 19.765625 -1.4375 C 17.523438 -0.0820312 15.039062 0.59375 12.3125 0.59375 Z M 12.3125 0.59375 "/></g></g></g><g fill="#e46f26" fill-opacity="1"><g transform="translate(221.503198, 235.009175)"><g><path d="M 12.6875 0.71875 C 10.257812 0.71875 8.128906 0.257812 6.296875 -0.65625 C 4.472656 -1.582031 3.050781 -2.882812 2.03125 -4.5625 C 1.019531 -6.238281 0.515625 -8.1875 0.515625 -10.40625 C 0.515625 -12.644531 0.96875 -14.597656 1.875 -16.265625 C 2.78125 -17.929688 4.070312 -19.222656 5.75 -20.140625 C 7.4375 -21.054688 9.398438 -21.515625 11.640625 -21.515625 C 13.796875 -21.515625 15.675781 -21.09375 17.28125 -20.25 C 18.882812 -19.414062 20.125 -18.234375 21 -16.703125 C 21.875 -15.171875 22.3125 -13.363281 22.3125 -11.28125 C 22.3125 -10.695312 22.269531 -10.101562 22.1875 -9.5 C 22.113281 -8.894531 22.007812 -8.394531 21.875 -8 L 9.6875 -8 C 9.757812 -7.175781 10.078125 -6.535156 10.640625 -6.078125 C 11.203125 -5.628906 11.921875 -5.40625 12.796875 -5.40625 C 13.546875 -5.40625 14.242188 -5.578125 14.890625 -5.921875 C 15.546875 -6.265625 16.0625 -6.726562 16.4375 -7.3125 L 22.4375 -4.71875 C 22.007812 -3.625 21.304688 -2.671875 20.328125 -1.859375 C 19.359375 -1.046875 18.210938 -0.414062 16.890625 0.03125 C 15.578125 0.488281 14.175781 0.71875 12.6875 0.71875 Z M 9.640625 -12.359375 L 13.359375 -12.359375 C 13.359375 -13.316406 13.195312 -14.078125 12.875 -14.640625 C 12.5625 -15.203125 12.132812 -15.484375 11.59375 -15.484375 C 11.039062 -15.484375 10.585938 -15.203125 10.234375 -14.640625 C 9.890625 -14.078125 9.691406 -13.316406 9.640625 -12.359375 Z M 9.640625 -12.359375 "/></g></g></g><g fill="#e46f26" fill-opacity="1"><g transform="translate(244.540908, 235.009175)"><g><path d="M 16.3125 -21.203125 C 18.132812 -21.203125 19.570312 -20.660156 20.625 -19.578125 C 21.675781 -18.492188 22.203125 -17.007812 22.203125 -15.125 L 22.203125 0 L 13 0 L 13 -12.28125 C 13 -13.375 12.585938 -13.921875 11.765625 -13.921875 C 11.285156 -13.921875 10.90625 -13.734375 10.625 -13.359375 C 10.34375 -12.984375 10.203125 -12.460938 10.203125 -11.796875 L 10.203125 0 L 1 0 L 1 -20.796875 L 8.40625 -20.796875 L 9.765625 -16.59375 L 9.796875 -16.59375 C 10.410156 -18.039062 11.289062 -19.171875 12.4375 -19.984375 C 13.582031 -20.796875 14.875 -21.203125 16.3125 -21.203125 Z M 16.3125 -21.203125 "/></g></g></g><g fill="#e46f26" fill-opacity="1"><g transform="translate(267.738607, 235.009175)"><g><path d="M 3.515625 0 L 3.515625 -14 L 0.3125 -14 L 0.3125 -20.796875 L 3.515625 -20.796875 L 3.515625 -22.203125 C 3.515625 -24.835938 4.328125 -26.894531 5.953125 -28.375 C 7.585938 -29.851562 9.773438 -30.59375 12.515625 -30.59375 C 13.773438 -30.59375 15.003906 -30.453125 16.203125 -30.171875 C 17.398438 -29.898438 18.519531 -29.492188 19.5625 -28.953125 L 18.125 -22.4375 C 17 -23 15.929688 -23.28125 14.921875 -23.28125 C 14.253906 -23.28125 13.71875 -23.085938 13.3125 -22.703125 C 12.914062 -22.316406 12.71875 -21.800781 12.71875 -21.15625 L 12.71875 -20.796875 L 18.125 -20.796875 L 18.125 -14 L 12.71875 -14 L 12.71875 0 Z M 3.515625 0 "/></g></g></g><g fill="#e46f26" fill-opacity="1"><g transform="translate(286.896702, 235.009175)"><g><path d="M 9.4375 9.125 C 7.726562 9.125 5.988281 8.925781 4.21875 8.53125 C 2.445312 8.144531 0.894531 7.582031 -0.4375 6.84375 L 1.796875 0 C 2.753906 0.53125 3.8125 0.945312 4.96875 1.25 C 6.132812 1.5625 7.222656 1.71875 8.234375 1.71875 C 9.785156 1.71875 11.003906 1.3125 11.890625 0.5 C 12.785156 -0.3125 13.234375 -1.410156 13.234375 -2.796875 L 13.234375 -4.59375 L 13.203125 -4.59375 C 12.609375 -3.15625 11.789062 -2.03125 10.75 -1.21875 C 9.71875 -0.40625 8.546875 0 7.234375 0 C 5.285156 0 3.769531 -0.628906 2.6875 -1.890625 C 1.613281 -3.160156 1.078125 -4.929688 1.078125 -7.203125 L 1.078125 -20.796875 L 10.28125 -20.796875 L 10.28125 -9.234375 C 10.28125 -7.878906 10.707031 -7.203125 11.5625 -7.203125 C 12.039062 -7.203125 12.410156 -7.398438 12.671875 -7.796875 C 12.941406 -8.203125 13.078125 -8.738281 13.078125 -9.40625 L 13.078125 -20.796875 L 22.28125 -20.796875 L 22.28125 -2 C 22.28125 0.269531 21.753906 2.238281 20.703125 3.90625 C 19.648438 5.570312 18.160156 6.859375 16.234375 7.765625 C 14.316406 8.671875 12.050781 9.125 9.4375 9.125 Z M 9.4375 9.125 "/></g></g></g></svg>