<svg xmlns="http://www.w3.org/2000/svg" xmlns:xlink="http://www.w3.org/1999/xlink" width="500" zoomAndPan="magnify" viewBox="0 0 375 374.999991" height="500" preserveAspectRatio="xMidYMid meet" version="1.0"><defs><g/><clipPath id="9796ecca57"><path d="M 99.070312 202.109375 L 134.320312 202.109375 L 134.320312 241 L 99.070312 241 Z M 99.070312 202.109375 " clip-rule="nonzero"/></clipPath><clipPath id="466627030f"><path d="M 116.769531 68.863281 L 266.769531 68.863281 L 266.769531 187.363281 L 116.769531 187.363281 Z M 116.769531 68.863281 " clip-rule="nonzero"/></clipPath></defs><g clip-path="url(#9796ecca57)"><path fill="#e46f26" d="M 99.070312 236.914062 L 99.070312 222.882812 C 99.28125 222.925781 101.789062 223.421875 103.636719 224.859375 C 105.929688 226.636719 105.25 228.3125 109.074219 229.363281 C 112.578125 230.328125 121.222656 230.351562 124.917969 229.769531 C 127.445312 229.382812 128.425781 228.484375 128.53125 226.488281 C 128.636719 224.792969 128.679688 223.140625 128.679688 221.488281 C 128.679688 219.835938 128.636719 218.164062 128.53125 216.492188 C 128.425781 214.496094 127.445312 213.59375 124.917969 213.1875 C 121.222656 212.609375 112.578125 212.628906 109.074219 213.617188 C 105.25 214.667969 105.929688 216.339844 103.636719 218.121094 C 101.789062 219.558594 99.28125 220.03125 99.070312 220.074219 L 99.070312 206.042969 C 99.070312 203.898438 100.832031 202.117188 102.957031 202.117188 L 115.234375 202.117188 C 121.03125 202.117188 125.683594 203.90625 129.1875 207.480469 C 132.714844 211.019531 134.457031 215.675781 134.457031 221.488281 C 134.457031 227.28125 132.714844 231.9375 129.1875 235.476562 C 125.683594 239.082031 121.03125 240.839844 115.234375 240.839844 L 102.957031 240.839844 C 100.832031 240.839844 99.070312 239.082031 99.070312 236.914062 Z M 110.878906 224.984375 L 124.496094 224.984375 C 124.765625 224.996094 124.996094 225.097656 125.1875 225.292969 C 125.378906 225.488281 125.472656 225.722656 125.472656 225.996094 C 125.472656 226.265625 125.378906 226.5 125.1875 226.695312 C 124.996094 226.890625 124.765625 226.996094 124.496094 227.003906 L 110.878906 227.003906 C 110.605469 226.996094 110.375 226.890625 110.1875 226.695312 C 109.996094 226.5 109.902344 226.265625 109.902344 225.996094 C 109.902344 225.722656 109.996094 225.488281 110.1875 225.292969 C 110.375 225.097656 110.605469 224.996094 110.878906 224.984375 Z M 110.878906 222.496094 C 110.347656 222.496094 109.902344 222.027344 109.902344 221.488281 C 109.898438 221.214844 109.992188 220.980469 110.183594 220.785156 C 110.375 220.585938 110.605469 220.488281 110.878906 220.480469 L 124.496094 220.480469 C 124.769531 220.488281 125 220.585938 125.191406 220.785156 C 125.382812 220.980469 125.476562 221.214844 125.472656 221.488281 C 125.472656 222.027344 125.027344 222.496094 124.496094 222.496094 Z M 124.496094 217.972656 L 110.878906 217.972656 C 110.605469 217.960938 110.375 217.859375 110.1875 217.664062 C 109.996094 217.46875 109.902344 217.234375 109.902344 216.960938 C 109.902344 216.691406 109.996094 216.457031 110.1875 216.261719 C 110.375 216.066406 110.605469 215.960938 110.878906 215.953125 L 124.496094 215.953125 C 124.765625 215.960938 124.996094 216.066406 125.1875 216.261719 C 125.378906 216.457031 125.472656 216.691406 125.472656 216.960938 C 125.472656 217.234375 125.378906 217.46875 125.1875 217.664062 C 124.996094 217.859375 124.765625 217.960938 124.496094 217.972656 Z M 124.496094 217.972656 " fill-opacity="1" fill-rule="nonzero"/></g><g clip-path="url(#466627030f)"><path fill="#e46f26" d="M 145.972656 102.898438 C 142.253906 103.175781 133.179688 104.425781 126.195312 110.039062 C 120.964844 114.246094 116.804688 120.792969 116.769531 131.078125 C 116.738281 141.046875 121.1875 147.308594 126.71875 151.277344 C 132.984375 155.769531 140.792969 157.125 144.882812 157.535156 C 145.695312 160.285156 146.25 163.757812 146.476562 167.523438 C 146.726562 171.625 146.574219 176.070312 145.871094 180.367188 L 144.699219 187.5 L 151.277344 184.507812 C 158.4375 181.210938 171.816406 178.480469 185.859375 178.644531 C 189.386719 178.683594 192.949219 178.9375 196.496094 179.300781 C 198.867188 179.542969 201.210938 179.804688 203.550781 180.167969 C 206.558594 180.632812 209.457031 181.179688 212.347656 181.945312 C 215.402344 182.753906 218.265625 183.597656 221.101562 184.894531 C 218.921875 182.695312 216.648438 180.773438 214.019531 179.078125 C 211.417969 177.394531 208.648438 176.074219 205.714844 174.925781 C 203.410156 174.019531 201.035156 173.308594 198.601562 172.738281 C 196.996094 172.363281 195.367188 172.09375 193.730469 171.871094 C 187.519531 171.035156 181.230469 171.027344 175.304688 171.4375 C 167.300781 171.988281 159.945312 173.4375 154.199219 175.210938 C 154.367188 172.433594 154.355469 169.683594 154.195312 167.054688 C 153.835938 161.199219 152.722656 155.960938 151.238281 152.382812 L 150.25 150.003906 L 147.675781 150.003906 C 147.675781 150.003906 138.1875 150.054688 131.15625 145.0625 C 127.3125 142.335938 124.304688 137.976562 124.28125 131.078125 C 124.257812 123.648438 127.085938 118.839844 130.84375 115.777344 C 136.039062 111.539062 142.757812 110.421875 145.902344 110.128906 C 145.992188 111.171875 146.121094 112.199219 146.296875 113.210938 C 147.691406 121.320312 151.589844 128.214844 157.207031 131.628906 C 152.652344 127.507812 150.371094 120.539062 150.300781 112.851562 C 150.242188 106.574219 151.824219 99.910156 155.210938 93.976562 C 157.042969 90.765625 159.460938 87.847656 162.441406 85.300781 C 168.226562 80.363281 176.320312 77.085938 187.277344 77.210938 C 199.144531 77.289062 207.078125 80.882812 212.335938 85.785156 C 222.6875 95.441406 222.6875 109.792969 222.6875 109.792969 L 222.6875 114.546875 L 227.40625 113.984375 C 227.40625 113.984375 239.796875 112.414062 249.171875 117.546875 C 254.402344 120.414062 258.519531 125.574219 258.558594 134.628906 C 258.628906 143.285156 255.53125 148.285156 251.257812 151.03125 C 247.738281 153.289062 243.59375 154.066406 240.082031 154.402344 C 236.730469 154.71875 233.914062 154.617188 232.605469 154.535156 C 232.796875 154.269531 232.980469 153.992188 233.152344 153.714844 C 234.085938 152.203125 234.8125 150.578125 235.289062 148.832031 C 235.632812 147.566406 235.890625 146.296875 235.953125 144.949219 C 236.089844 142.097656 235.667969 139.285156 234.578125 136.269531 C 234.476562 137.960938 234.175781 139.449219 233.796875 140.976562 C 233.222656 143.273438 232.277344 145.230469 231.171875 147.144531 C 230.453125 148.394531 229.613281 149.519531 228.738281 150.632812 C 228.160156 151.367188 227.550781 152.070312 226.941406 152.78125 C 225.371094 154.613281 223.703125 156.320312 221.726562 157.722656 C 218.554688 159.980469 215.101562 161.691406 211.179688 162.335938 C 215.421875 163.03125 219.617188 162.640625 223.570312 161.191406 C 224.96875 160.683594 226.28125 160.007812 227.527344 159.21875 C 226.957031 161.800781 226.664062 164.457031 226.710938 167.222656 C 226.796875 172.253906 227.769531 177.347656 228.957031 182.65625 C 229.253906 177.390625 229.832031 172.417969 230.929688 167.667969 C 231.449219 165.40625 232.109375 163.265625 232.992188 161.238281 C 234.789062 161.535156 237.460938 161.84375 240.53125 161.761719 C 245.1875 161.636719 250.664062 160.484375 255.375 157.601562 C 261.554688 153.816406 266.578125 146.972656 266.675781 134.628906 C 266.722656 124.644531 263.046875 118.035156 258 113.613281 C 249.746094 106.378906 237.285156 105.378906 230.75 105.410156 C 229.90625 99.296875 227.140625 88.019531 218.085938 79.609375 C 211.605469 73.589844 201.914062 68.933594 187.3125 68.898438 C 176.152344 68.90625 167.402344 71.796875 160.859375 76.429688 C 158.734375 77.9375 156.828125 79.613281 155.179688 81.457031 C 152.609375 84.328125 150.570312 87.519531 149.097656 90.910156 C 147.421875 94.777344 146.386719 98.851562 145.972656 102.898438 Z M 145.972656 102.898438 " fill-opacity="1" fill-rule="evenodd"/></g><g fill="#e46f26" fill-opacity="1"><g transform="translate(134.471847, 238.157372)"><g><path d="M 1.9375 0 L 1.9375 -34.734375 L 25.578125 -34.734375 L 25.578125 -24.125 L 14.46875 -24.125 L 14.46875 -19.78125 L 22.671875 -19.78125 L 22.671875 -10.609375 L 14.46875 -10.609375 L 14.46875 0 Z M 1.9375 0 "/></g></g></g><g fill="#e46f26" fill-opacity="1"><g transform="translate(160.765996, 238.157372)"><g><path d="M 6.75 -27.015625 C 4.945312 -27.015625 3.488281 -27.546875 2.375 -28.609375 C 1.269531 -29.671875 0.71875 -31.070312 0.71875 -32.8125 C 0.71875 -34.550781 1.269531 -35.945312 2.375 -37 C 3.488281 -38.0625 4.945312 -38.59375 6.75 -38.59375 C 8.550781 -38.59375 10.003906 -38.0625 11.109375 -37 C 12.222656 -35.945312 12.78125 -34.550781 12.78125 -32.8125 C 12.78125 -31.070312 12.222656 -29.671875 11.109375 -28.609375 C 10.003906 -27.546875 8.550781 -27.015625 6.75 -27.015625 Z M 1.203125 0 L 1.203125 -25.09375 L 12.296875 -25.09375 L 12.296875 0 Z M 1.203125 0 "/></g></g></g><g fill="#e46f26" fill-opacity="1"><g transform="translate(174.274922, 238.157372)"><g><path d="M 14.859375 0.71875 C 11.253906 0.71875 8.539062 -0.195312 6.71875 -2.03125 C 4.90625 -3.863281 4 -6.351562 4 -9.5 L 4 -16.890625 L 0.390625 -16.890625 L 0.390625 -25.09375 L 4 -25.09375 L 4 -31.125 L 15.109375 -33.53125 L 15.109375 -25.09375 L 22.828125 -25.09375 L 22.828125 -16.890625 L 15.109375 -16.890625 L 15.109375 -11.671875 C 15.109375 -10.453125 15.394531 -9.550781 15.96875 -8.96875 C 16.550781 -8.394531 17.242188 -8.109375 18.046875 -8.109375 C 18.785156 -8.109375 19.457031 -8.210938 20.0625 -8.421875 C 20.675781 -8.628906 21.367188 -8.972656 22.140625 -9.453125 L 23.828125 -1.734375 C 21.128906 -0.0976562 18.140625 0.71875 14.859375 0.71875 Z M 14.859375 0.71875 "/></g></g></g><g fill="#e46f26" fill-opacity="1"><g transform="translate(198.735716, 238.157372)"><g><path d="M 1.9375 0 L 1.9375 -34.734375 L 14.46875 -34.734375 L 14.46875 -22.671875 L 21.71875 -22.671875 L 21.71875 -34.734375 L 34.25 -34.734375 L 34.25 0 L 21.71875 0 L 21.71875 -13.03125 L 14.46875 -13.03125 L 14.46875 0 Z M 1.9375 0 "/></g></g></g><g fill="#e46f26" fill-opacity="1"><g transform="translate(234.920319, 238.157372)"><g><path d="M 8.296875 0.484375 C 6.140625 0.484375 4.414062 -0.164062 3.125 -1.46875 C 1.84375 -2.769531 1.203125 -4.582031 1.203125 -6.90625 L 1.203125 -25.09375 L 12.296875 -25.09375 L 12.296875 -10.328125 C 12.296875 -9.003906 12.796875 -8.34375 13.796875 -8.34375 C 15.054688 -8.34375 15.6875 -9.195312 15.6875 -10.90625 L 15.6875 -25.09375 L 26.78125 -25.09375 L 26.78125 0 L 17.859375 0 L 16.21875 -5.109375 L 16.15625 -5.109375 C 15.457031 -3.335938 14.40625 -1.960938 13 -0.984375 C 11.601562 -0.00390625 10.035156 0.484375 8.296875 0.484375 Z M 8.296875 0.484375 "/></g></g></g><g fill="#e46f26" fill-opacity="1"><g transform="translate(262.903079, 238.157372)"><g><path d="M 19.0625 0.484375 C 17.519531 0.484375 16.128906 0.0546875 14.890625 -0.796875 C 13.648438 -1.648438 12.722656 -2.925781 12.109375 -4.625 L 12.0625 -4.625 L 10.609375 0 L 1.203125 0 L 1.203125 -36.1875 L 12.296875 -36.1875 L 12.296875 -20.609375 L 12.359375 -20.609375 C 12.992188 -22.242188 13.898438 -23.476562 15.078125 -24.3125 C 16.253906 -25.15625 17.582031 -25.578125 19.0625 -25.578125 C 21.726562 -25.578125 23.84375 -24.425781 25.40625 -22.125 C 26.96875 -19.820312 27.75 -16.628906 27.75 -12.546875 C 27.75 -8.460938 26.96875 -5.269531 25.40625 -2.96875 C 23.84375 -0.664062 21.726562 0.484375 19.0625 0.484375 Z M 14.234375 -8.6875 C 14.972656 -8.6875 15.554688 -9.023438 15.984375 -9.703125 C 16.421875 -10.378906 16.640625 -11.328125 16.640625 -12.546875 C 16.640625 -13.765625 16.421875 -14.710938 15.984375 -15.390625 C 15.554688 -16.066406 14.972656 -16.40625 14.234375 -16.40625 C 13.492188 -16.40625 12.90625 -16.066406 12.46875 -15.390625 C 12.039062 -14.710938 11.828125 -13.765625 11.828125 -12.546875 C 11.828125 -11.328125 12.039062 -10.378906 12.46875 -9.703125 C 12.90625 -9.023438 13.492188 -8.6875 14.234375 -8.6875 Z M 14.234375 -8.6875 "/></g></g></g></svg>